<svg width="500" height="284" viewBox="0 0 500 284" fill="none" xmlns="http://www.w3.org/2000/svg">
<path d="M344.382 133.583V25.8417H367.978V133.583H344.382Z" fill="#F421CD"/>
<path d="M405.899 25H412.64V48.5683H405.899V25Z" fill="#D9D9D9"/>
<path d="M344.382 25H470.786V48.5683H344.382V25Z" fill="#F421CD"/>
<path d="M427.809 168.094V118.432H451.404V168.094H427.809Z" fill="#F421CD"/>
<path d="M340.169 179.878H475V203.446H340.169V179.878Z" fill="#22C4F2"/>
<path d="M367.978 48.5683H470.786V72.1367H367.978V48.5683Z" fill="#22C4F2"/>
<path d="M367.978 86.446H475V110.014H367.978V86.446Z" fill="#22C4F2"/>
<path d="M363.764 110.014H475V133.583H363.764V110.014Z" fill="#F421CD"/>
<path d="M340.169 156.309H459.831V179.878H340.169V156.309Z" fill="#F421CD"/>
<path d="M367.978 110.014V48.5683H391.573V110.014H367.978Z" fill="#22C4F2"/>
<path d="M451.404 179.878V100.755H475V179.878H451.404Z" fill="#22C4F2"/>
<path d="M309.41 203.025L247.472 25H223.876L285.815 203.025H309.41Z" fill="#F52D42"/>
<path d="M161.938 203.025L223.876 25H247.472L185.534 203.025H161.938Z" fill="#00C89E"/>
<path d="M333.006 203.025L271.067 25H247.472L309.41 203.025H333.006Z" fill="#1862FA"/>
<path d="M185.534 203.025L247.472 25H271.067L209.129 203.025H185.534Z" fill="#F52D42"/>
<path d="M25 25H168.258V48.5683H25V25Z" fill="#00C89E"/>
<path d="M25 48.5683H96.6292V72.1367H25V48.5683Z" fill="#FFCE00"/>
<path d="M96.6292 48.5683H168.258V72.1367H96.6292V48.5683Z" fill="#6526D9"/>
<path d="M73.0337 72.1367H96.6292V203.446H73.0337V72.1367Z" fill="#FFCE00"/>
<path d="M96.6292 72.1367H120.225V203.446H96.6292V72.1367Z" fill="#6526D9"/>
<path d="M25.9789 236.014H44.3853V239.3H36.827V259H33.5372V239.3H25.9789V236.014Z" fill="#1C1C1E"/>
<path d="M79.4868 236.014L88.3611 259H85.0713L83.0333 253.71H72.6506L70.6126 259H67.3229L76.1971 236.014H79.4868ZM73.9023 250.424H81.7656L77.85 240.294L73.9023 250.424Z" fill="#1C1C1E"/>
<path d="M119.194 236.014V245.936L130.17 236.014H134.808L122.355 247.283L135.306 259H130.668L119.194 248.661V259H115.904V236.014H119.194Z" fill="#1C1C1E"/>
<path d="M161.902 236.014H178.672V239.3H165.192V245.872H176.698V249.158H165.192V255.714H178.672V259H161.902V236.014Z" fill="#1C1C1E"/>
<path d="M250.832 236.014L259.707 259H256.417L254.379 253.71H243.996L241.958 259H238.668L247.543 236.014H250.832ZM245.248 250.424H253.111L249.196 240.294L245.248 250.424Z" fill="#1C1C1E"/>
<path d="M323.988 249.158C323.539 249.158 323.111 249.073 322.704 248.902C322.309 248.72 321.961 248.485 321.661 248.196C321.362 247.897 321.126 247.55 320.955 247.155C320.784 246.749 320.698 246.321 320.698 245.872V239.3C320.698 238.852 320.784 238.429 320.955 238.034C321.126 237.628 321.362 237.281 321.661 236.992C321.961 236.693 322.309 236.458 322.704 236.287C323.111 236.105 323.539 236.014 323.988 236.014H335.157C335.607 236.014 336.029 236.105 336.425 236.287C336.831 236.458 337.185 236.693 337.484 236.992C337.784 237.281 338.019 237.628 338.19 238.034C338.361 238.429 338.447 238.852 338.447 239.3V242.266H335.157V239.3H323.988V245.872H335.157C335.607 245.872 336.029 245.958 336.425 246.129C336.831 246.3 337.185 246.535 337.484 246.834C337.784 247.133 338.019 247.486 338.19 247.892C338.361 248.287 338.447 248.709 338.447 249.158V255.714C338.447 256.163 338.361 256.59 338.19 256.996C338.019 257.392 337.784 257.739 337.484 258.038C337.185 258.337 336.831 258.573 336.425 258.744C336.029 258.915 335.607 259 335.157 259H323.667C323.218 259 322.79 258.915 322.383 258.744C321.988 258.573 321.64 258.337 321.34 258.038C321.041 257.739 320.805 257.392 320.634 256.996C320.463 256.59 320.378 256.163 320.378 255.714V252.765H323.667V255.714H335.157V249.158H323.988Z" fill="#1C1C1E"/>
<path d="M367.98 236.014H384.75V239.3H371.27V245.872H382.776V249.158H371.27V255.714H384.75V259H367.98V236.014Z" fill="#1C1C1E"/>
<path d="M423.462 236.014L432.336 259H429.046L427.008 253.71H416.626L414.588 259H411.298L420.172 236.014H423.462ZM417.877 250.424H425.741L421.825 240.294L417.877 250.424Z" fill="#1C1C1E"/>
<path d="M455.274 236.014H473.68V239.3H466.122V259H462.832V239.3H455.274V236.014Z" fill="#1C1C1E"/>
</svg>
