<svg xmlns="http://www.w3.org/2000/svg" width="620" height="620" viewBox="202 202 620 620" fill="none" role="img" aria-label="TAS">
<path d="M 392.67 707.20 C389.32,708.93 386.34,709.42 377.50,709.69 C362.66,710.15 356.08,707.67 351.50,699.90 C349.75,696.93 349.46,694.33 349.17,679.25 L 348.83 662.00 L 341.51 662.00 C331.13,662.00 319.92,659.61 313.00,655.92 C305.25,651.79 297.66,643.66 293.68,635.24 L 290.50 628.50 L 290.23 548.55 C289.96,469.82 289.99,468.51 292.04,462.05 C295.74,450.47 303.12,441.79 313.43,436.89 C322.35,432.65 328.52,431.74 344.91,432.23 C357.02,432.59 360.49,433.05 365.34,434.94 C376.28,439.20 385.99,449.32 389.72,460.34 C391.25,464.84 391.53,471.23 391.98,510.50 L 392.50 555.50 L 631.50 555.50 L 632.00 510.50 C632.50,466.28 632.55,465.40 634.84,459.72 C639.25,448.76 648.90,439.13 659.66,434.94 C664.51,433.05 667.98,432.59 680.09,432.23 C696.49,431.74 702.66,432.65 711.57,436.89 C718.84,440.35 727.20,448.94 730.42,456.25 C734.77,466.14 735.00,470.76 734.98,547.08 C734.96,626.78 734.90,627.78 728.92,639.01 C720.80,654.22 705.44,661.86 682.75,661.97 L 675.00 662.00 L 675.00 678.38 C675.00,696.38 674.32,699.45 669.22,704.31 C665.24,708.09 658.33,710.00 648.59,709.99 C635.06,709.99 627.99,706.82 623.99,698.98 C622.24,695.55 622.00,693.08 622.00,678.55 L 622.00 662.02 L 512.50 661.76 L 403.00 661.50 L 402.99 676.50 C402.99,697.31 401.13,702.82 392.67,707.20 ZM 606.08 495.50 L 605.50 529.50 L 512.72 529.76 C439.00,529.96 419.86,529.75 419.52,528.76 C419.29,528.06 418.92,513.33 418.69,496.00 C418.24,461.26 417.62,457.15 410.83,443.33 C401.45,424.22 382.60,411.74 360.66,410.11 L 352.50 409.50 L 352.22 385.00 C351.89,356.79 352.73,349.81 357.60,340.08 C361.34,332.60 369.07,324.54 375.79,321.11 C376.83,320.58 377.73,320.11 378.66,319.68 C386.64,316.03 396.30,316.03 505.79,316.02 L 512.20 316.01 C596.42,316.00 633.47,316.33 637.20,317.11 C650.31,319.87 660.68,327.75 666.29,339.20 C671.51,349.87 672.14,355.00 671.80,384.00 L 671.50 409.50 L 663.73 410.13 C642.12,411.89 623.97,423.90 614.08,443.00 C606.82,457.01 606.72,457.69 606.08,495.50 Z" fill="#6526d9"/>
</svg>
