<svg width="500" height="230" viewBox="0 0 500 230" fill="none" xmlns="http://www.w3.org/2000/svg">
<path d="M344.382 133.92V25.8443H367.978V133.92H344.382Z" fill="#F421CD"/>
<path d="M405.899 25H412.64V48.6415H405.899V25Z" fill="#D9D9D9"/>
<path d="M344.382 25H470.786V48.6415H344.382V25Z" fill="#F421CD"/>
<path d="M427.809 168.538V118.722H451.404V168.538H427.809Z" fill="#F421CD"/>
<path d="M340.169 180.358H475V204H340.169V180.358Z" fill="#22C4F2"/>
<path d="M367.978 48.6415H470.786V72.283H367.978V48.6415Z" fill="#22C4F2"/>
<path d="M367.978 86.6368H475V110.278H367.978V86.6368Z" fill="#22C4F2"/>
<path d="M363.764 110.278H475V133.92H363.764V110.278Z" fill="#F421CD"/>
<path d="M340.169 156.717H459.831V180.358H340.169V156.717Z" fill="#F421CD"/>
<path d="M367.978 110.278V48.6415H391.573V110.278H367.978Z" fill="#22C4F2"/>
<path d="M451.404 180.358V100.991H475V180.358H451.404Z" fill="#22C4F2"/>
<path d="M309.41 203.578L247.472 25H223.876L285.815 203.578H309.41Z" fill="#F52D42"/>
<path d="M161.938 203.578L223.876 25H247.472L185.534 203.578H161.938Z" fill="#00C89E"/>
<path d="M333.006 203.578L271.067 25H247.472L309.41 203.578H333.006Z" fill="#1862FA"/>
<path d="M185.534 203.578L247.472 25H271.067L209.129 203.578H185.534Z" fill="#F52D42"/>
<path d="M25 25H168.258V48.6415H25V25Z" fill="#00C89E"/>
<path d="M25 48.6415H96.6292V72.283H25V48.6415Z" fill="#FFCE00"/>
<path d="M96.6292 48.6415H168.258V72.283H96.6292V48.6415Z" fill="#6526D9"/>
<path d="M73.0337 72.283H96.6292V204H73.0337V72.283Z" fill="#FFCE00"/>
<path d="M96.6292 72.283H120.225V204H96.6292V72.283Z" fill="#6526D9"/>
</svg>
